<svg width="314" height="360" viewBox="0 0 314 360" fill="none" xmlns="http://www.w3.org/2000/svg">
<path d="M231.467 0.238586L176.914 153.524L163.841 96.8253C163.841 96.8253 143.632 90.8732 122.039 103.193C100.445 115.512 95.3935 130.518 95.3935 130.518L137.336 239.722L81.644 359.802H161.135L313.786 0.238586H231.467Z" fill="#F18B49"/>
<path d="M212.791 21.387L189.333 82.4834C189.333 82.4834 115.505 62.5925 83.0853 129.044C48.4706 204.176 115.897 253.687 115.897 253.687L88.2509 308.452C88.2509 308.452 27.1356 285.381 6.51825 214.263C-11.3303 152.696 13.7494 99.9774 13.7494 99.9774C47.0318 21.0044 132.392 -9.96709 212.791 21.387Z" fill="white"/>
<path d="M300.651 230.168L237.087 226.889L188.017 328.113C188.017 328.113 219.299 328.113 256.772 295.833C294.244 263.554 300.651 230.168 300.651 230.168Z" fill="white"/>
</svg>
