<svg width="231" height="87" viewBox="0 0 231 87" fill="none" xmlns="http://www.w3.org/2000/svg">
<path d="M8.07167 48.3391C2.91393 43.33 0.335815 36.9755 0.335815 29.2757C0.335815 21.5759 2.91393 15.2214 8.07167 10.2124C13.2279 5.20327 19.5328 2.69873 26.9849 2.69873C32.7627 2.69873 37.895 4.22878 42.3845 7.28739C46.8771 10.3475 50.0123 14.5908 51.7901 20.0203H36.6847C34.7102 16.2215 31.551 14.3205 27.2071 14.3205C22.8662 14.3205 19.4487 15.6779 16.9547 18.3927C14.4637 21.1074 13.2189 24.7351 13.2189 29.2757C13.2189 33.8163 14.4637 37.444 16.9547 40.1588C19.4487 42.8735 22.8662 44.2309 27.2071 44.2309C31.551 44.2309 34.7102 42.3315 36.6847 38.5311H51.7901C50.0123 43.9606 46.8771 48.2055 42.3845 51.2641C37.895 54.3242 32.7627 55.8527 26.9849 55.8527C19.5328 55.8527 13.2279 53.3482 8.07167 48.3391Z" fill="white"/>
<path d="M70.7357 54.5913L54.6694 14.0982H69.036L78.2133 41.1197L88.2795 14.0982H101.535L75.1802 75.1022H61.9247L70.7357 54.5913Z" fill="white"/>
<path d="M135.364 42.3451C137.19 40.5913 138.103 38.0868 138.103 34.8314C138.103 31.5731 137.19 29.0536 135.364 27.2758C133.538 25.498 131.439 24.6091 129.07 24.6091C126.699 24.6091 124.601 25.486 122.775 27.2397C120.949 28.9935 120.037 31.5011 120.037 34.7594C120.037 38.0147 120.949 40.5312 122.775 42.309C124.601 44.0838 126.699 44.9697 129.07 44.9697C131.439 44.9697 133.538 44.0959 135.364 42.3451ZM120.037 19.5039C122.85 15.6044 126.885 13.6539 132.139 13.6539C137.396 13.6539 141.851 15.642 145.502 19.618C149.154 23.591 150.98 28.6617 150.98 34.8314C150.98 40.9982 149.154 46.0553 145.502 50.0029C141.851 53.9519 137.433 55.9249 132.253 55.9249C127.071 55.9249 122.999 53.7552 120.037 49.4143V55.4083H107.376V0.626709H120.037V19.5039Z" fill="white"/>
<path d="M176.596 55.925C170.573 55.925 165.636 53.9895 161.785 50.1171C157.937 46.2416 156.013 41.0959 156.013 34.6814C156.013 28.2639 157.925 23.1542 161.749 19.3538C165.576 15.555 170.525 13.6541 176.596 13.6541C182.665 13.6541 187.698 15.531 191.695 19.2818C195.695 23.0341 197.695 28.2414 197.695 34.9036C197.695 36.3331 197.595 37.6649 197.395 38.8977H168.968C169.216 40.7235 170.031 42.2176 171.413 43.3782C172.794 44.5404 174.285 45.12 175.887 45.12C177.492 45.12 178.689 44.9608 179.479 44.6395C180.272 44.3152 180.851 43.9939 181.221 43.6725C181.593 43.3527 182.074 42.8227 182.662 42.0809H196.362C195.176 46.2296 192.806 49.575 189.251 52.1171C185.698 54.6562 181.48 55.925 176.596 55.925ZM184.518 30.9756C184.317 29.0537 183.476 27.4891 181.996 26.2789C180.518 25.0701 178.766 24.465 176.74 24.465C174.718 24.465 173.016 25.0701 171.635 26.2789C170.254 27.4891 169.389 29.0537 169.04 30.9756H184.518Z" fill="white"/>
<path d="M218.492 14.0985V21.7983C221.454 16.3688 225.402 13.6541 230.336 13.6541V26.5371H227.231C224.315 26.5371 222.128 27.2278 220.672 28.6092C219.219 29.9906 218.492 32.4096 218.492 35.8646V55.4085H205.831V14.0985H218.492Z" fill="white"/>
<path d="M92.2445 68.7109V69.1553H84.3044V77.1194H91.5117V77.5639H84.3044V85.9724H83.8119V68.7109H92.2445Z" fill="white"/>
<path d="M101.171 86.147C99.9413 86.147 98.8362 85.8737 97.8557 85.3242C96.8782 84.7761 96.1079 83.9908 95.5433 82.9698C94.9788 81.9488 94.6965 80.7445 94.6965 79.3541C94.6965 77.9652 94.9788 76.7595 95.5433 75.7384C96.1079 74.7174 96.8782 73.9336 97.8557 73.3841C98.8362 72.836 99.9413 72.5612 101.171 72.5612C102.396 72.5612 103.498 72.836 104.48 73.3841C105.461 73.9336 106.228 74.7174 106.781 75.7384C107.336 76.7595 107.616 77.9652 107.616 79.3541C107.616 80.7445 107.336 81.9488 106.781 82.9698C106.228 83.9908 105.461 84.7761 104.48 85.3242C103.498 85.8737 102.396 86.147 101.171 86.147ZM101.171 85.7026C102.231 85.7026 103.21 85.4713 104.108 85.0059C105.009 84.5374 105.736 83.8317 106.288 82.8857C106.844 81.9367 107.123 80.7595 107.123 79.3541C107.123 77.9487 106.844 76.7715 106.288 75.8225C105.736 74.8736 105.009 74.1678 104.108 73.7024C103.21 73.2384 102.231 73.0057 101.171 73.0057C100.105 73.0057 99.1185 73.2384 98.21 73.7024C97.3046 74.1678 96.5734 74.8781 96.0178 75.8345C95.4653 76.7925 95.189 77.9652 95.189 79.3541C95.189 80.7445 95.4653 81.9172 96.0178 82.8737C96.5734 83.8272 97.3046 84.5374 98.21 85.0059C99.1185 85.4713 100.105 85.7026 101.171 85.7026Z" fill="white"/>
<path d="M111.662 75.9426C112.182 73.6092 113.922 72.441 116.882 72.441V72.9816H116.659C115.269 72.9816 114.089 73.387 113.116 74.1948C112.146 75.0041 111.662 76.3075 111.662 78.1048V85.9728H111.17V72.7353H111.662V75.9426Z" fill="white"/>
<path d="M133.382 76.9993C134.411 77.196 135.268 77.699 135.953 78.5068C136.64 79.3161 136.986 80.2696 136.986 81.3657C136.986 82.7201 136.519 83.8267 135.586 84.6871C134.652 85.5445 133.298 85.9724 131.52 85.9724H126.565V68.7109H131.52C133.233 68.7109 134.507 69.0998 135.34 69.8761C136.176 70.6539 136.595 71.6704 136.595 72.9272C136.595 74.0728 136.286 74.9903 135.67 75.678C135.058 76.3626 134.295 76.8041 133.382 76.9993ZM127.058 76.753H131.664C133.101 76.753 134.2 76.4152 134.962 75.738C135.721 75.0578 136.103 74.1209 136.103 72.9272C136.103 71.786 135.726 70.8821 134.974 70.2124C134.22 69.5397 133.07 69.2034 131.52 69.2034H127.058V76.753ZM131.52 85.4799C133.085 85.4799 134.304 85.1135 135.178 84.3808C136.055 83.645 136.493 82.639 136.493 81.3657C136.493 80.1044 136.043 79.1044 135.142 78.3627C134.244 77.6179 133.019 77.2455 131.466 77.2455H127.058V85.4799H131.52Z" fill="white"/>
<path d="M151.176 72.7353V85.9727H150.69V82.3691C150.393 83.6274 149.774 84.5838 148.834 85.24C147.897 85.8932 146.781 86.219 145.489 86.219C143.939 86.219 142.666 85.737 141.669 84.7715C140.672 83.8075 140.173 82.3511 140.173 80.4051V72.7353H140.636V80.4591C140.636 82.1889 141.068 83.5087 141.933 84.4172C142.801 85.3226 143.987 85.7745 145.489 85.7745C147.058 85.7745 148.317 85.264 149.266 84.243C150.215 83.2219 150.69 81.7144 150.69 79.7204V72.7353H151.176Z" fill="white"/>
<path d="M159.609 86.147C158.156 86.147 156.982 85.8527 156.09 85.2641C155.201 84.6755 154.681 83.7851 154.534 82.5914H155.027C155.123 83.5734 155.558 84.3377 156.336 84.8857C157.112 85.4308 158.211 85.7026 159.633 85.7026C160.354 85.7026 160.986 85.5644 161.531 85.2881C162.079 85.0089 162.5 84.6365 162.792 84.171C163.088 83.707 163.237 83.204 163.237 82.6635C163.237 82.0749 163.069 81.5974 162.732 81.228C162.399 80.8601 161.983 80.5779 161.483 80.3812C160.986 80.186 160.306 79.9727 159.441 79.7445C158.476 79.5013 157.695 79.2565 157.099 79.0118C156.501 78.764 155.995 78.3871 155.579 77.8826C155.162 77.3751 154.955 76.7039 154.955 75.8706C154.955 75.282 155.132 74.7354 155.489 74.2309C155.849 73.7234 156.343 73.318 156.973 73.0177C157.605 72.7144 158.313 72.5612 159.099 72.5612C160.435 72.5612 161.513 72.8976 162.33 73.5702C163.147 74.2399 163.588 75.1709 163.657 76.3631H163.165C163.117 75.3826 162.744 74.5778 162.048 73.9486C161.354 73.321 160.372 73.0057 159.099 73.0057C158.41 73.0057 157.786 73.1363 157.231 73.3961C156.674 73.6573 156.235 74.0087 155.915 74.4531C155.599 74.8946 155.441 75.3661 155.441 75.8706C155.441 76.5913 155.629 77.1724 156.006 77.6123C156.381 78.0538 156.843 78.3796 157.393 78.5913C157.941 78.8046 158.672 79.0343 159.585 79.282C160.518 79.5433 161.249 79.779 161.777 79.9908C162.309 80.204 162.764 80.5253 163.141 80.9577C163.516 81.3902 163.705 81.9593 163.705 82.6635C163.705 83.3166 163.525 83.9097 163.165 84.4413C162.804 84.9743 162.313 85.3933 161.693 85.6966C161.072 85.9969 160.378 86.147 159.609 86.147Z" fill="white"/>
<path d="M167.432 69.3477C167.251 69.3477 167.098 69.2876 166.975 69.1675C166.855 69.0444 166.795 68.8837 166.795 68.687C166.795 68.4918 166.855 68.3327 166.975 68.2126C167.098 68.0894 167.251 68.0264 167.432 68.0264C167.612 68.0264 167.762 68.0894 167.882 68.2126C168.005 68.3327 168.068 68.4918 168.068 68.687C168.068 68.8837 168.005 69.0444 167.882 69.1675C167.762 69.2876 167.612 69.3477 167.432 69.3477ZM167.678 72.7351V85.9726H167.185V72.7351H167.678Z" fill="white"/>
<path d="M177.531 72.441C179.083 72.441 180.36 72.9245 181.357 73.8885C182.354 74.8495 182.852 76.303 182.852 78.2489V85.9728H182.384V78.2009C182.384 76.4681 181.951 75.1483 181.086 74.2429C180.222 73.3344 179.035 72.8795 177.531 72.8795C175.96 72.8795 174.702 73.39 173.753 74.411C172.807 75.4321 172.336 76.9396 172.336 78.9336V85.9728H171.843V72.7353H172.336V76.2129C172.643 74.9876 173.263 74.0537 174.197 73.408C175.13 72.7639 176.241 72.441 177.531 72.441Z" fill="white"/>
<path d="M192.655 85.7026C194.144 85.7026 195.395 85.3287 196.408 84.5794C197.42 83.8272 198.033 82.7956 198.246 81.4863H198.739C198.506 82.8767 197.856 84.0013 196.787 84.8617C195.718 85.7191 194.339 86.147 192.655 86.147C191.429 86.147 190.333 85.8767 189.369 85.3362C188.404 84.7956 187.647 84.0118 187.099 82.9818C186.554 81.9533 186.282 80.7445 186.282 79.3541C186.282 77.9652 186.554 76.7565 187.099 75.7264C187.647 74.6979 188.404 73.9126 189.369 73.372C190.333 72.8315 191.429 72.5612 192.655 72.5612C193.947 72.5612 195.051 72.836 195.964 73.3841C196.88 73.9336 197.571 74.6393 198.036 75.5042C198.504 76.3691 198.739 77.285 198.739 78.249C198.739 78.8376 198.728 79.2805 198.709 79.5763H186.775C186.79 80.9307 187.07 82.0659 187.615 82.9818C188.163 83.8992 188.878 84.5824 189.76 85.0299C190.644 85.4788 191.609 85.7026 192.655 85.7026ZM192.655 73.0057C191.609 73.0057 190.644 73.2309 189.76 73.6784C188.878 74.1273 188.163 74.8105 187.615 75.7264C187.07 76.6394 186.79 77.7745 186.775 79.1319H198.294C198.378 77.7745 198.162 76.6394 197.646 75.7264C197.129 74.8105 196.423 74.1273 195.531 73.6784C194.643 73.2309 193.683 73.0057 192.655 73.0057Z" fill="white"/>
<path d="M206.554 86.147C205.101 86.147 203.927 85.8527 203.035 85.2641C202.146 84.6755 201.626 83.7851 201.479 82.5914H201.972C202.068 83.5734 202.503 84.3377 203.281 84.8857C204.057 85.4308 205.156 85.7026 206.578 85.7026C207.299 85.7026 207.931 85.5644 208.476 85.2881C209.024 85.0089 209.445 84.6365 209.738 84.171C210.033 83.707 210.182 83.204 210.182 82.6635C210.182 82.0749 210.014 81.5974 209.677 81.228C209.344 80.8601 208.928 80.5779 208.428 80.3812C207.931 80.186 207.251 79.9727 206.386 79.7445C205.421 79.5013 204.64 79.2565 204.044 79.0118C203.446 78.764 202.94 78.3871 202.524 77.8826C202.107 77.3751 201.9 76.7039 201.9 75.8706C201.9 75.282 202.077 74.7354 202.434 74.2309C202.794 73.7234 203.288 73.318 203.918 73.0177C204.55 72.7144 205.258 72.5612 206.044 72.5612C207.38 72.5612 208.458 72.8976 209.275 73.5702C210.092 74.2399 210.533 75.1709 210.602 76.3631H210.11C210.062 75.3826 209.689 74.5778 208.993 73.9486C208.299 73.321 207.317 73.0057 206.044 73.0057C205.355 73.0057 204.731 73.1363 204.176 73.3961C203.619 73.6573 203.18 74.0087 202.861 74.4531C202.544 74.8946 202.386 75.3661 202.386 75.8706C202.386 76.5913 202.574 77.1724 202.951 77.6123C203.326 78.0538 203.788 78.3796 204.338 78.5913C204.886 78.8046 205.617 79.0343 206.53 79.282C207.463 79.5433 208.194 79.779 208.722 79.9908C209.254 80.204 209.709 80.5253 210.086 80.9577C210.461 81.3902 210.65 81.9593 210.65 82.6635C210.65 83.3166 210.47 83.9097 210.11 84.4413C209.75 84.9743 209.259 85.3933 208.638 85.6966C208.017 85.9969 207.323 86.147 206.554 86.147Z" fill="white"/>
<path d="M218.395 86.147C216.941 86.147 215.767 85.8527 214.875 85.2641C213.986 84.6755 213.467 83.7851 213.319 82.5914H213.812C213.908 83.5734 214.343 84.3377 215.121 84.8857C215.898 85.4308 216.997 85.7026 218.419 85.7026C219.139 85.7026 219.771 85.5644 220.317 85.2881C220.865 85.0089 221.285 84.6365 221.578 84.171C221.874 83.707 222.022 83.204 222.022 82.6635C222.022 82.0749 221.854 81.5974 221.518 81.228C221.184 80.8601 220.768 80.5779 220.268 80.3812C219.771 80.186 219.091 79.9727 218.226 79.7445C217.261 79.5013 216.48 79.2565 215.884 79.0118C215.286 78.764 214.78 78.3871 214.364 77.8826C213.947 77.3751 213.74 76.7039 213.74 75.8706C213.74 75.282 213.917 74.7354 214.274 74.2309C214.635 73.7234 215.129 73.318 215.758 73.0177C216.39 72.7144 217.099 72.5612 217.884 72.5612C219.22 72.5612 220.298 72.8976 221.115 73.5702C221.932 74.2399 222.374 75.1709 222.443 76.3631H221.95C221.902 75.3826 221.53 74.5778 220.833 73.9486C220.139 73.321 219.157 73.0057 217.884 73.0057C217.195 73.0057 216.572 73.1363 216.016 73.3961C215.459 73.6573 215.021 74.0087 214.701 74.4531C214.384 74.8946 214.226 75.3661 214.226 75.8706C214.226 76.5913 214.414 77.1724 214.791 77.6123C215.166 78.0538 215.629 78.3796 216.178 78.5913C216.726 78.8046 217.458 79.0343 218.371 79.282C219.303 79.5433 220.034 79.779 220.563 79.9908C221.094 80.204 221.549 80.5253 221.926 80.9577C222.302 81.3902 222.491 81.9593 222.491 82.6635C222.491 83.3166 222.311 83.9097 221.95 84.4413C221.59 84.9743 221.099 85.3933 220.479 85.6966C219.857 85.9969 219.163 86.147 218.395 86.147Z" fill="white"/>
</svg>
